# xmcd
#
# Track frame offsets: 
#        150
#        11461
#        21512
#        34963
#        53981
#        63032
#        72149
#        90728
#        112519
#        116722
#        152240
#        187426
#        211863
#        230620
#        248858
#        277147
#        288297
#        301803
#
# Disc length: 4387 seconds
#
# Revision: 0
# Processed by: cddbd v1.4PL0 Copyright (c) Steve Scherf et al.
# Submitted via: ExactAudioCopy v0.90b4
#
DISCID=00112112
DTITLE=Van Morrison - In Copenhagen
DYEAR=1983
DGENRE=Celtic
TTITLE0=Gloria
TTITLE1=What'd I Say
TTITLE2=Tore Down A La Rimbaud
TTITLE3=Foreign Window
TTITLE4=She Gives Me Religion
TTITLE5=I Will Be There
TTITLE6=Dweller On The Threshold
TTITLE7=Tir Na Nog
TTITLE8=Here Comes The Knight
TTITLE9=Who Do You Love
TTITLE10=Stormy Monday
TTITLE11=Help Me
TTITLE12=T For Texas
TTITLE13=I've Been Working
TTITLE14=Haunts Of Ancient Peace
TTITLE15=All Saints Day
TTITLE16=Waiting For The Day To Come
TTITLE17=Sweet Thing
EXTD=
EXTT0=
EXTT1=
EXTT2=
EXTT3=
EXTT4=
EXTT5=
EXTT6=
EXTT7=
EXTT8=
EXTT9=
EXTT10=
EXTT11=
EXTT12=
EXTT13=
EXTT14=
EXTT15=
EXTT16=
EXTT17=
PLAYORDER=
